<svg xmlns="http://www.w3.org/2000/svg" viewBox="0.25714290142059326 14.899999618530273 170.6856689453125 30.649999618530273" data-asc="0.9" width="170.6856689453125" height="30.649999618530273"><defs/><g fill="#088120"><g transform="translate(0, 0)"><path d="M6.05 45.50Q4.05 45.50 2.63 44.70Q1.20 43.90 0.60 42Q0 40.10 0.45 36.80L2.50 22.40Q3.05 18.30 5.70 16.60Q8.35 14.90 12.35 14.90Q16.45 14.90 18.68 16.63Q20.90 18.35 20.35 22.40L19.55 27.90L17.15 45.05L9.70 45.05L9.70 44.25Q8.95 44.80 8.07 45.15Q7.20 45.50 6.05 45.50M6.20 44.60Q7.80 44.60 8.80 43.90Q9.80 43.20 10.35 42.30L10.55 44.15L16.45 44.15L18.60 28.85L10.10 28.85L11.05 21.95Q11.20 21.05 11.75 21.05Q12.25 21.05 12.10 21.95L11.40 26.95L18.85 26.95L19.50 22.40Q20 18.85 17.93 17.32Q15.85 15.80 12.20 15.80Q8.60 15.80 6.23 17.32Q3.85 18.85 3.35 22.40L1.30 36.80Q0.70 41.20 2.13 42.90Q3.55 44.60 6.20 44.60M6.25 44.15Q3.70 44.15 2.45 42.52Q1.20 40.90 1.75 36.80L3.80 22.40Q4.25 19.05 6.50 17.65Q8.75 16.25 12.15 16.25Q15.60 16.25 17.55 17.65Q19.50 19.05 19.05 22.40L18.45 26.50L11.90 26.50L12.55 21.95Q12.65 21.15 12.43 20.88Q12.20 20.60 11.80 20.60Q11.40 20.60 11.08 20.88Q10.75 21.15 10.65 21.95L8.30 38.70Q8.20 39.50 8.43 39.77Q8.65 40.05 9.05 40.05Q9.45 40.05 9.78 39.77Q10.10 39.50 10.20 38.70L10.95 33.35L9.85 33.35L10.45 29.30L18.10 29.30L16.05 43.70L10.95 43.70L10.75 40.85Q10.20 41.95 9.15 43.05Q8.10 44.15 6.25 44.15M9.15 39.60Q8.55 39.60 8.70 38.70L9.40 33.80L10.45 33.80L9.75 38.70Q9.60 39.60 9.15 39.60ZM17.85 45L21.30 20.25L30.30 20.25L30.10 22.20Q31.20 20.90 32.98 20.38Q34.75 19.85 36.15 20.05L35 28.75Q32.20 28.75 30.38 31.90Q28.55 35.05 27.80 40.60L27.20 45L17.85 45M18.85 44.10L26.40 44.10Q26.70 42.35 26.82 41.58Q26.95 40.80 27.05 39.95Q27.90 34.60 29.73 31.48Q31.55 28.35 34.25 28L35.20 20.85Q33.70 20.55 31.98 21.55Q30.25 22.55 29.10 24.10L29.50 21.15L22 21.15L18.85 44.10M19.40 43.65L22.40 21.60L29.05 21.60L28.45 25.95Q28.90 24.90 29.98 23.70Q31.05 22.50 32.35 21.75Q33.65 21 34.75 21.25L33.85 27.55Q32.95 27.55 31.90 28.15Q30.85 28.75 29.85 30.20Q28.80 31.70 27.92 34.17Q27.05 36.65 26.50 40.45L26.05 43.65L19.40 43.65ZM41.85 45.55Q38.85 45.55 37.02 44.83Q35.20 44.10 34.57 42.10Q33.95 40.10 34.50 36.20L35.80 26.95Q36.35 22.90 38.82 21.35Q41.30 19.80 45.45 19.80Q49.60 19.80 51.63 21.35Q53.65 22.90 53.10 26.95L51.80 36.20Q51.25 40.10 50.02 42.10Q48.80 44.10 46.80 44.83Q44.80 45.55 41.85 45.55M41.95 44.65Q44.65 44.65 46.48 44Q48.30 43.35 49.38 41.52Q50.45 39.70 50.95 36.20L52.25 26.95Q52.80 23.35 50.95 22.02Q49.10 20.70 45.35 20.70Q41.60 20.70 39.40 22.02Q37.20 23.35 36.65 26.95L35.35 36.20Q34.85 39.70 35.42 41.52Q36 43.35 37.65 44Q39.30 44.65 41.95 44.65M42.05 44.20Q39.50 44.20 37.95 43.58Q36.40 42.95 35.85 41.23Q35.30 39.50 35.75 36.20L37.05 26.95Q37.55 23.60 39.60 22.38Q41.65 21.15 45.25 21.15Q48.80 21.15 50.55 22.38Q52.30 23.60 51.80 26.95L50.50 36.20Q50.05 39.50 49.02 41.23Q48 42.95 46.30 43.58Q44.60 44.20 42.05 44.20M42.55 40.60Q43.10 40.60 43.25 40.17Q43.40 39.75 43.45 39.40L45.35 25.90Q45.45 25.20 45.30 24.95Q45.15 24.70 44.75 24.70Q44.40 24.70 44.17 24.92Q43.95 25.15 43.85 25.90L41.95 39.40Q41.90 39.90 41.98 40.25Q42.05 40.60 42.55 40.60M42.60 40.15Q42.35 40.15 42.40 39.40L44.30 25.90Q44.45 25.15 44.70 25.15Q45.05 25.15 44.90 25.90L43 39.40Q42.90 40.15 42.60 40.15ZM54.85 45L53.35 20.25L62.90 20.25L62.70 26.70L64.35 20.25L81.85 20.25Q82.75 22.70 82.75 25.35Q82.75 27.25 82.38 29.57Q82 31.90 81.15 34.15Q80.65 35.55 79.70 37.30Q78.75 39.05 77.65 40.67Q76.55 42.30 75.50 43.48Q74.45 44.65 73.65 45L65.70 45L65.65 43.80L65.35 45L54.85 45M55.65 44.10L64.65 44.10L65.55 41Q65.80 40.20 66 39.42Q66.20 38.65 66.45 37.85L66.60 44.10L73.40 44.10Q74.10 43.80 75.08 42.70Q76.05 41.60 77.05 40.02Q78.05 38.45 78.92 36.83Q79.80 35.20 80.30 33.85Q81.15 31.60 81.50 29.40Q81.85 27.20 81.85 25.35Q81.85 22.95 81.20 21.15L74.05 21.15Q74.70 23.10 74.70 25.45Q74.70 27.75 74.17 30.17Q73.65 32.60 72.90 34.95L72.65 21.15L65 21.15L61.90 32.20L61.95 21.15L54.30 21.15L55.65 44.10M56.10 43.65L54.80 21.60L61.50 21.60L61.40 35.45L65.35 21.60L72.20 21.60L72.50 37.20Q73.70 34.30 74.47 31.17Q75.25 28.05 75.25 25.40Q75.25 23.25 74.65 21.60L80.90 21.60Q81.15 22.25 81.28 23.20Q81.40 24.15 81.40 25.30Q81.40 27.30 81.03 29.52Q80.65 31.75 79.90 33.70Q79.45 35.05 78.63 36.65Q77.80 38.25 76.83 39.73Q75.85 41.20 74.92 42.27Q74 43.35 73.30 43.65L67.05 43.65L66.85 34.85L64.30 43.65L56.10 43.65ZM87.45 45.50Q85.45 45.50 84.03 44.70Q82.60 43.90 82 42Q81.40 40.10 81.85 36.80L83.90 22.40Q84.45 18.30 87.10 16.60Q89.75 14.90 93.75 14.90Q97.85 14.90 100.08 16.63Q102.30 18.35 101.75 22.40L100.95 27.90L98.55 45.05L91.10 45.05L91.10 44.25Q90.35 44.80 89.48 45.15Q88.60 45.50 87.45 45.50M87.60 44.60Q89.20 44.60 90.20 43.90Q91.20 43.20 91.75 42.30L91.95 44.15L97.85 44.15L100 28.85L91.50 28.85L92.45 21.95Q92.60 21.05 93.15 21.05Q93.65 21.05 93.50 21.95L92.80 26.95L100.25 26.95L100.90 22.40Q101.40 18.85 99.33 17.32Q97.25 15.80 93.60 15.80Q90 15.80 87.63 17.32Q85.25 18.85 84.75 22.40L82.70 36.80Q82.10 41.20 83.53 42.90Q84.95 44.60 87.60 44.60M87.65 44.15Q85.10 44.15 83.85 42.52Q82.60 40.90 83.15 36.80L85.20 22.40Q85.65 19.05 87.90 17.65Q90.15 16.25 93.55 16.25Q97 16.25 98.95 17.65Q100.90 19.05 100.45 22.40L99.85 26.50L93.30 26.50L93.95 21.95Q94.05 21.15 93.83 20.88Q93.60 20.60 93.20 20.60Q92.80 20.60 92.48 20.88Q92.15 21.15 92.05 21.95L89.70 38.70Q89.60 39.50 89.83 39.77Q90.05 40.05 90.45 40.05Q90.85 40.05 91.18 39.77Q91.50 39.50 91.60 38.70L92.35 33.35L91.25 33.35L91.85 29.30L99.50 29.30L97.45 43.70L92.35 43.70L92.15 40.85Q91.60 41.95 90.55 43.05Q89.50 44.15 87.65 44.15M90.55 39.60Q89.95 39.60 90.10 38.70L90.80 33.80L91.85 33.80L91.15 38.70Q91 39.60 90.55 39.60ZM99.25 45L102.70 20.25L111.70 20.25L111.50 22.20Q112.60 20.90 114.38 20.38Q116.15 19.85 117.55 20.05L116.40 28.75Q113.60 28.75 111.78 31.90Q109.95 35.05 109.20 40.60L108.60 45L99.25 45M100.25 44.10L107.80 44.10Q108.10 42.35 108.23 41.58Q108.35 40.80 108.45 39.95Q109.30 34.60 111.13 31.48Q112.95 28.35 115.65 28L116.60 20.85Q115.10 20.55 113.38 21.55Q111.65 22.55 110.50 24.10L110.90 21.15L103.40 21.15L100.25 44.10M100.80 43.65L103.80 21.60L110.45 21.60L109.85 25.95Q110.30 24.90 111.38 23.70Q112.45 22.50 113.75 21.75Q115.05 21 116.15 21.25L115.25 27.55Q114.35 27.55 113.30 28.15Q112.25 28.75 111.25 30.20Q110.20 31.70 109.33 34.17Q108.45 36.65 107.90 40.45L107.45 43.65L100.80 43.65ZM123.70 45.55Q120.30 45.55 118.43 44.65Q116.55 43.75 116.00 41.65Q115.45 39.55 115.95 36.05L117.25 26.75Q117.80 22.90 120.25 21.35Q122.70 19.80 126.80 19.80Q131 19.80 133.10 21.55Q135.20 23.30 134.80 27.15Q134.40 29.25 133.33 30.80Q132.25 32.35 130.95 33.20Q130.65 33.40 130.35 33.55Q130.05 33.70 129.60 33.90L133.90 33.90L133.55 36.35Q133 40.15 131.80 42.15Q130.60 44.15 128.63 44.85Q126.65 45.55 123.70 45.55M123.70 44.65Q126.45 44.65 128.25 44Q130.05 43.35 131.13 41.52Q132.20 39.70 132.70 36.20L132.90 34.80L125.25 34.80L124.60 39.45Q124.55 40.15 124.25 40.15Q124.00 40.15 124.05 39.45L124.80 34.05Q128.50 33.95 130.98 32.23Q133.45 30.50 133.95 27Q134.30 23.55 132.45 22.13Q130.60 20.70 126.80 20.70Q123.05 20.70 120.83 22.07Q118.60 23.45 118.10 26.90L116.80 36.20Q116.35 39.40 116.85 41.25Q117.35 43.10 119.03 43.88Q120.70 44.65 123.70 44.65M123.70 44.20Q121.15 44.20 119.55 43.58Q117.95 42.95 117.38 41.25Q116.80 39.55 117.25 36.20L118.55 26.95Q119.00 23.60 121.10 22.38Q123.20 21.15 126.80 21.15Q130.40 21.15 132.18 22.38Q133.95 23.60 133.50 26.95Q133.20 29.20 131.85 30.67Q130.50 32.15 128.55 32.90Q126.60 33.65 124.40 33.65L123.55 39.45Q123.40 40.60 124.15 40.60Q124.90 40.60 125.05 39.45L125.65 35.25L132.40 35.25L132.25 36.20Q131.75 39.55 130.73 41.25Q129.70 42.95 128 43.58Q126.30 44.20 123.70 44.20M124.85 30.20Q125.60 30 126.03 29.20Q126.45 28.40 126.65 27.45Q127.05 25.85 126.95 25.27Q126.85 24.70 126.35 24.70Q125.65 24.70 125.45 26.05L124.85 30.20M125.25 29.60L125.85 26.10Q125.95 25.50 126.05 25.32Q126.15 25.15 126.30 25.15Q126.70 25.15 126.25 27.30Q126.05 28.10 125.78 28.80Q125.50 29.50 125.25 29.60ZM141.60 45.55Q138.20 45.55 136.33 44.65Q134.45 43.75 133.90 41.65Q133.35 39.55 133.85 36.05L135.15 26.75Q135.70 22.90 138.15 21.35Q140.60 19.80 144.70 19.80Q148.90 19.80 151.00 21.55Q153.10 23.30 152.70 27.15Q152.30 29.25 151.23 30.80Q150.15 32.35 148.85 33.20Q148.55 33.40 148.25 33.55Q147.95 33.70 147.50 33.90L151.80 33.90L151.45 36.35Q150.90 40.15 149.70 42.15Q148.50 44.15 146.53 44.85Q144.55 45.55 141.60 45.55M141.60 44.65Q144.35 44.65 146.15 44Q147.95 43.35 149.03 41.52Q150.10 39.70 150.60 36.20L150.80 34.80L143.15 34.80L142.50 39.45Q142.45 40.15 142.15 40.15Q141.90 40.15 141.95 39.45L142.70 34.05Q146.40 33.95 148.88 32.23Q151.35 30.50 151.85 27Q152.20 23.55 150.35 22.13Q148.50 20.70 144.70 20.70Q140.95 20.70 138.73 22.07Q136.50 23.45 136.00 26.90L134.70 36.20Q134.25 39.40 134.75 41.25Q135.25 43.10 136.93 43.88Q138.60 44.65 141.60 44.65M141.60 44.20Q139.05 44.20 137.45 43.58Q135.85 42.95 135.28 41.25Q134.70 39.55 135.15 36.20L136.45 26.95Q136.90 23.60 139.00 22.38Q141.10 21.15 144.70 21.15Q148.30 21.15 150.08 22.38Q151.85 23.60 151.40 26.95Q151.10 29.20 149.75 30.67Q148.40 32.15 146.45 32.90Q144.50 33.65 142.30 33.65L141.45 39.45Q141.30 40.60 142.05 40.60Q142.80 40.60 142.95 39.45L143.55 35.25L150.30 35.25L150.15 36.20Q149.65 39.55 148.63 41.25Q147.60 42.95 145.90 43.58Q144.20 44.20 141.60 44.20M142.75 30.20Q143.50 30 143.93 29.20Q144.35 28.40 144.55 27.45Q144.95 25.85 144.85 25.27Q144.75 24.70 144.25 24.70Q143.55 24.70 143.35 26.05L142.75 30.20M143.15 29.60L143.75 26.10Q143.85 25.50 143.95 25.32Q144.05 25.15 144.20 25.15Q144.60 25.15 144.15 27.30Q143.95 28.10 143.68 28.80Q143.40 29.50 143.15 29.60ZM150.45 45L153.95 20.25L162.20 20.25L162.15 21.75Q163.00 20.90 164.10 20.42Q165.20 19.95 166.55 19.95Q169.25 19.95 170.23 21.55Q171.20 23.15 170.85 25.70L168.20 45L150.45 45M151.45 44.10L159.20 44.10L161.45 27.35Q161.50 26.70 161.85 26.70Q162.15 26.70 162.10 27.25L159.75 44.10L167.45 44.10L170.00 25.60Q170.35 23.05 169.45 21.95Q168.55 20.85 166.55 20.85Q164.65 20.85 163.33 21.77Q162.00 22.70 161.20 23.85L161.30 21.15L154.70 21.15L151.45 44.10M152.05 43.65L155.10 21.60L160.90 21.60L160.80 25.60Q161.35 24.10 162.88 22.70Q164.40 21.30 166.55 21.30Q168.50 21.30 169.15 22.42Q169.80 23.55 169.55 25.50L167.05 43.65L160.25 43.65L162.55 27.20Q162.70 26.25 161.90 26.25Q161.20 26.25 161.05 27.20L158.80 43.65L152.05 43.65Z"/></g></g></svg>